<svg width="24" height="24" viewBox="0 0 24 24" xmlns="http://www.w3.org/2000/svg" aria-hidden="true">
  <rect x="3" y="3" width="18" height="18" rx="5" fill="#1DA1F2"/>
  <path d="M18.5 9.2c-.5.2-1 .4-1.6.5.6-.4 1-.9 1.2-1.6-.5.3-1.1.6-1.8.7A2.6 2.6 0 0 0 12 10.4c0 .2 0 .4.1.6-2.2-.1-4.2-1.2-5.5-2.9-.2.4-.3.8-.3 1.3 0 .9.5 1.7 1.2 2.2-.4 0-.8-.2-1.2-.3v.1c0 1.2.9 2.2 2.1 2.4-.2.1-.5.1-.8.1-.2 0-.4 0-.6-.1.4 1 1.4 1.7 2.6 1.7A5.2 5.2 0 0 1 6 16.7c-.3 0-.6 0-.9-.1a7.3 7.3 0 0 0 4 1.2c4.8 0 7.4-4 7.4-7.4v-.3c.5-.3.9-.8 1.1-1.2z" fill="#fff"/>
</svg>
